<svg width="10" height="14" viewBox="0 0 10 14" fill="none" xmlns="http://www.w3.org/2000/svg">
<path d="M1.4594 0.763881C1.4594 0.636656 1.40886 0.514642 1.3189 0.424681C1.22894 0.334719 1.10693 0.28418 0.979702 0.28418C0.852477 0.28418 0.730463 0.334719 0.640501 0.424681C0.55054 0.514642 0.5 0.636656 0.5 0.763881V3.64209C0.499887 4.19502 0.690817 4.73101 1.04048 5.15934C1.39014 5.58767 1.87705 5.88204 2.41881 5.99263V13.2361C2.41881 13.3633 2.46935 13.4854 2.55931 13.5753C2.64927 13.6653 2.77128 13.7158 2.89851 13.7158C3.02573 13.7158 3.14775 13.6653 3.23771 13.5753C3.32767 13.4854 3.37821 13.3633 3.37821 13.2361V5.99263C3.91997 5.88204 4.40688 5.58767 4.75654 5.15934C5.1062 4.73101 5.29713 4.19502 5.29701 3.64209V0.763881C5.29701 0.636656 5.24647 0.514642 5.15651 0.424681C5.06655 0.334719 4.94454 0.28418 4.81731 0.28418C4.69009 0.28418 4.56807 0.334719 4.47811 0.424681C4.38815 0.514642 4.33761 0.636656 4.33761 0.763881V3.64209C4.33777 3.93982 4.24558 4.23027 4.07375 4.4734C3.90192 4.71654 3.65891 4.9004 3.37821 4.99965V0.763881C3.37821 0.636656 3.32767 0.514642 3.23771 0.424681C3.14775 0.334719 3.02573 0.28418 2.89851 0.28418C2.77128 0.28418 2.64927 0.334719 2.55931 0.424681C2.46935 0.514642 2.41881 0.636656 2.41881 0.763881V4.99965C2.13811 4.9004 1.8951 4.71654 1.72327 4.4734C1.55144 4.23027 1.45925 3.93982 1.4594 3.64209V0.763881ZM8.17522 13.2361V7H6.73612C6.60889 7 6.48688 6.94946 6.39692 6.8595C6.30696 6.76954 6.25642 6.64752 6.25642 6.5203V2.68269C6.25642 2.0466 6.56918 1.45177 6.99612 1.02388C7.42401 0.596945 8.01884 0.28418 8.65492 0.28418C8.78215 0.28418 8.90416 0.334719 8.99413 0.424681C9.08409 0.514642 9.13463 0.636656 9.13463 0.763881V13.2361C9.13463 13.3633 9.08409 13.4854 8.99413 13.5753C8.90416 13.6653 8.78215 13.7158 8.65492 13.7158C8.5277 13.7158 8.40569 13.6653 8.31572 13.5753C8.22576 13.4854 8.17522 13.3633 8.17522 13.2361Z" fill="white" fill-opacity="0.6"/>
</svg>
