<svg width="18" height="19" viewBox="0 0 18 19" fill="none" xmlns="http://www.w3.org/2000/svg">
<path d="M17.4078 10.8159L15.9037 5.40408C15.4628 3.81863 14.5046 2.42606 13.1814 1.4477C11.8582 0.469345 10.246 -0.0386406 8.60092 0.00448949C6.95588 0.0476196 5.37246 0.63939 4.10236 1.68574C2.83225 2.73208 1.94834 4.17296 1.59114 5.77933L0.426596 11.0162C0.297962 11.5949 0.300937 12.195 0.435299 12.7724C0.569661 13.3497 0.83198 13.8895 1.20289 14.3519C1.5738 14.8143 2.04383 15.1875 2.57828 15.444C3.11272 15.7004 3.69794 15.8335 4.29072 15.8335H5.17264C5.35434 16.7283 5.8398 17.5328 6.54677 18.1106C7.25374 18.6885 8.13873 19.0041 9.05181 19.0041C9.96488 19.0041 10.8499 18.6885 11.5568 18.1106C12.2638 17.5328 12.7493 16.7283 12.931 15.8335H13.5944C14.2046 15.8335 14.8066 15.6925 15.3533 15.4214C15.9 15.1503 16.3766 14.7564 16.7459 14.2706C17.1152 13.7848 17.3671 13.2202 17.4821 12.6209C17.5971 12.0216 17.5711 11.4039 17.4078 10.8159ZM9.05181 17.4168C8.56235 17.4148 8.08547 17.2616 7.68642 16.9782C7.28736 16.6948 6.98562 16.295 6.82247 15.8335H11.2811C11.118 16.295 10.8162 16.6948 10.4172 16.9782C10.0181 17.2616 9.54126 17.4148 9.05181 17.4168ZM15.4849 13.312C15.2643 13.6047 14.9785 13.8419 14.6502 14.0047C14.3218 14.1676 13.9601 14.2516 13.5936 14.2502H4.29072C3.93509 14.2501 3.58402 14.1702 3.26341 14.0163C2.9428 13.8624 2.66084 13.6385 2.43835 13.361C2.21586 13.0836 2.05851 12.7598 1.97792 12.4134C1.89733 12.067 1.89555 11.7069 1.97272 11.3598L3.13647 6.12212C3.417 4.86037 4.11126 3.7286 5.10887 2.90673C6.10649 2.08485 7.35022 1.62005 8.64233 1.5862C9.93445 1.55235 11.2008 1.9514 12.2401 2.71991C13.2794 3.48842 14.0319 4.58229 14.3781 5.82762L15.8823 11.2395C15.9817 11.592 15.9975 11.9629 15.9285 12.3227C15.8596 12.6825 15.7076 13.0212 15.4849 13.312Z" fill="white"/>
</svg>
