<svg width="18" height="17" viewBox="0 0 18 17" fill="none" xmlns="http://www.w3.org/2000/svg">
<g clip-path="url(#clip0_3041_408)">
<path d="M13.9583 1.41667H13.25V0.708333C13.25 0.520472 13.1754 0.340304 13.0425 0.207466C12.9097 0.0746278 12.7295 0 12.5417 0C12.3538 0 12.1736 0.0746278 12.0408 0.207466C11.908 0.340304 11.8333 0.520472 11.8333 0.708333V1.41667H6.16667V0.708333C6.16667 0.520472 6.09204 0.340304 5.9592 0.207466C5.82636 0.0746278 5.64619 0 5.45833 0C5.27047 0 5.0903 0.0746278 4.95747 0.207466C4.82463 0.340304 4.75 0.520472 4.75 0.708333V1.41667H4.04167C3.1027 1.41779 2.20252 1.79129 1.53857 2.45524C0.874625 3.11919 0.501125 4.01937 0.5 4.95833L0.5 13.4583C0.501125 14.3973 0.874625 15.2975 1.53857 15.9614C2.20252 16.6254 3.1027 16.9989 4.04167 17H13.9583C14.8973 16.9989 15.7975 16.6254 16.4614 15.9614C17.1254 15.2975 17.4989 14.3973 17.5 13.4583V4.95833C17.4989 4.01937 17.1254 3.11919 16.4614 2.45524C15.7975 1.79129 14.8973 1.41779 13.9583 1.41667ZM1.91667 4.95833C1.91667 4.39475 2.14055 3.85425 2.53906 3.45573C2.93758 3.05722 3.47808 2.83333 4.04167 2.83333H13.9583C14.5219 2.83333 15.0624 3.05722 15.4609 3.45573C15.8595 3.85425 16.0833 4.39475 16.0833 4.95833V5.66667H1.91667V4.95833ZM13.9583 15.5833H4.04167C3.47808 15.5833 2.93758 15.3595 2.53906 14.9609C2.14055 14.5624 1.91667 14.0219 1.91667 13.4583V7.08333H16.0833V13.4583C16.0833 14.0219 15.8595 14.5624 15.4609 14.9609C15.0624 15.3595 14.5219 15.5833 13.9583 15.5833Z" fill="white" fill-opacity="0.87"/>
<path d="M9 11.6875C9.5868 11.6875 10.0625 11.2118 10.0625 10.625C10.0625 10.0382 9.5868 9.5625 9 9.5625C8.4132 9.5625 7.9375 10.0382 7.9375 10.625C7.9375 11.2118 8.4132 11.6875 9 11.6875Z" fill="white" fill-opacity="0.87"/>
<path d="M5.45825 11.6875C6.04505 11.6875 6.52075 11.2118 6.52075 10.625C6.52075 10.0382 6.04505 9.5625 5.45825 9.5625C4.87145 9.5625 4.39575 10.0382 4.39575 10.625C4.39575 11.2118 4.87145 11.6875 5.45825 11.6875Z" fill="white" fill-opacity="0.87"/>
<path d="M12.5417 11.6875C13.1286 11.6875 13.6042 11.2118 13.6042 10.625C13.6042 10.0382 13.1286 9.5625 12.5417 9.5625C11.9549 9.5625 11.4792 10.0382 11.4792 10.625C11.4792 11.2118 11.9549 11.6875 12.5417 11.6875Z" fill="white" fill-opacity="0.87"/>
</g>
<defs>
<clipPath id="clip0_3041_408">
<rect width="17" height="17" fill="white" transform="translate(0.5)"/>
</clipPath>
</defs>
</svg>
