<svg width="20" height="21" viewBox="0 0 20 21" fill="none" xmlns="http://www.w3.org/2000/svg">
<path d="M5.7501 1.5C5.7501 1.30109 5.67108 1.11032 5.53043 0.96967C5.38978 0.829018 5.19901 0.75 5.0001 0.75C4.80119 0.75 4.61042 0.829018 4.46977 0.96967C4.32912 1.11032 4.2501 1.30109 4.2501 1.5V3.08C2.8101 3.195 1.8661 3.477 1.1721 4.172C0.477102 4.866 0.195102 5.811 0.0791016 7.25H19.9211C19.8051 5.81 19.5231 4.866 18.8281 4.172C18.1341 3.477 17.1891 3.195 15.7501 3.079V1.5C15.7501 1.30109 15.6711 1.11032 15.5304 0.96967C15.3898 0.829018 15.199 0.75 15.0001 0.75C14.8012 0.75 14.6104 0.829018 14.4698 0.96967C14.3291 1.11032 14.2501 1.30109 14.2501 1.5V3.013C13.5851 3 12.8391 3 12.0001 3H8.0001C7.1611 3 6.4151 3 5.7501 3.013V1.5Z" fill="white" fill-opacity="0.87"/>
<path fill-rule="evenodd" clip-rule="evenodd" d="M0 11C0 10.161 1.11759e-08 9.415 0.013 8.75H19.987C20 9.415 20 10.161 20 11V13C20 16.771 20 18.657 18.828 19.828C17.657 21 15.771 21 12 21H8C4.229 21 2.343 21 1.172 19.828C-1.19209e-07 18.657 0 16.771 0 13V11ZM15 13C15.2652 13 15.5196 12.8946 15.7071 12.7071C15.8946 12.5196 16 12.2652 16 12C16 11.7348 15.8946 11.4804 15.7071 11.2929C15.5196 11.1054 15.2652 11 15 11C14.7348 11 14.4804 11.1054 14.2929 11.2929C14.1054 11.4804 14 11.7348 14 12C14 12.2652 14.1054 12.5196 14.2929 12.7071C14.4804 12.8946 14.7348 13 15 13ZM15 17C15.2652 17 15.5196 16.8946 15.7071 16.7071C15.8946 16.5196 16 16.2652 16 16C16 15.7348 15.8946 15.4804 15.7071 15.2929C15.5196 15.1054 15.2652 15 15 15C14.7348 15 14.4804 15.1054 14.2929 15.2929C14.1054 15.4804 14 15.7348 14 16C14 16.2652 14.1054 16.5196 14.2929 16.7071C14.4804 16.8946 14.7348 17 15 17ZM11 12C11 12.2652 10.8946 12.5196 10.7071 12.7071C10.5196 12.8946 10.2652 13 10 13C9.73478 13 9.48043 12.8946 9.29289 12.7071C9.10536 12.5196 9 12.2652 9 12C9 11.7348 9.10536 11.4804 9.29289 11.2929C9.48043 11.1054 9.73478 11 10 11C10.2652 11 10.5196 11.1054 10.7071 11.2929C10.8946 11.4804 11 11.7348 11 12ZM11 16C11 16.2652 10.8946 16.5196 10.7071 16.7071C10.5196 16.8946 10.2652 17 10 17C9.73478 17 9.48043 16.8946 9.29289 16.7071C9.10536 16.5196 9 16.2652 9 16C9 15.7348 9.10536 15.4804 9.29289 15.2929C9.48043 15.1054 9.73478 15 10 15C10.2652 15 10.5196 15.1054 10.7071 15.2929C10.8946 15.4804 11 15.7348 11 16ZM5 13C5.26522 13 5.51957 12.8946 5.70711 12.7071C5.89464 12.5196 6 12.2652 6 12C6 11.7348 5.89464 11.4804 5.70711 11.2929C5.51957 11.1054 5.26522 11 5 11C4.73478 11 4.48043 11.1054 4.29289 11.2929C4.10536 11.4804 4 11.7348 4 12C4 12.2652 4.10536 12.5196 4.29289 12.7071C4.48043 12.8946 4.73478 13 5 13ZM5 17C5.26522 17 5.51957 16.8946 5.70711 16.7071C5.89464 16.5196 6 16.2652 6 16C6 15.7348 5.89464 15.4804 5.70711 15.2929C5.51957 15.1054 5.26522 15 5 15C4.73478 15 4.48043 15.1054 4.29289 15.2929C4.10536 15.4804 4 15.7348 4 16C4 16.2652 4.10536 16.5196 4.29289 16.7071C4.48043 16.8946 4.73478 17 5 17Z" fill="white" fill-opacity="0.87"/>
</svg>
