<svg width="25" height="12" viewBox="0 0 25 12" fill="none" xmlns="http://www.w3.org/2000/svg">
<path d="M0.529283 4.98419C0.873567 4.38314 1.3315 4.03107 1.94162 3.96271C3.46861 3.79161 4.9966 3.62965 6.52559 3.48451C6.8615 3.4527 7.14142 3.3379 7.38144 3.09222C7.93156 2.52993 8.47799 1.96362 9.02911 1.40279C9.20042 1.2284 9.38211 1.06608 9.55778 0.896442C9.96609 0.501597 10.4455 0.315873 10.9875 0.263959C14.0754 -0.0310784 17.1686 -0.0449711 20.2631 0.058493C20.9037 0.0800632 21.5424 0.167807 22.1816 0.229593C22.4512 0.25555 22.6858 0.3751 22.888 0.571792C23.6164 1.28068 24.2135 2.10218 24.6604 3.04908C24.7401 3.21835 24.7794 3.41065 24.8467 3.62124C24.4857 3.62124 24.1629 3.62124 23.84 3.62124C23.653 3.62124 23.6198 3.65561 23.6151 3.864C23.6074 4.19779 23.7321 4.48003 23.9155 4.73448C24.1565 5.06864 24.475 5.29275 24.8303 5.45142C24.9436 5.50187 24.9788 5.56841 24.9825 5.69271C25.006 6.42354 25.0224 7.15364 24.9084 7.87898C24.8766 8.08226 24.7857 8.23837 24.6439 8.37035C24.2098 8.77433 23.709 9.05292 23.188 9.29348C23.0663 9.34978 22.9919 9.32382 22.9396 9.16442C22.8085 8.76446 22.665 8.36815 22.5058 7.98062C22.2665 7.39786 21.8498 7.05164 21.2765 6.90247C20.4361 6.68312 19.6191 6.71419 18.8176 7.08637C18.5521 7.20958 18.3707 7.42382 18.2172 7.67535C17.9423 8.12576 17.7646 8.62407 17.6238 9.13883C17.5886 9.26752 17.5424 9.32127 17.4086 9.32127C14.2018 9.31651 10.9949 9.31651 7.78842 9.32053C7.66405 9.32053 7.62147 9.27154 7.57923 9.15126C7.43005 8.72644 7.27886 8.30088 7.10186 7.88886C6.88899 7.39311 6.52459 7.0871 6.03649 6.9394C5.16187 6.67434 4.30736 6.69774 3.46458 7.08491C3.19271 7.20994 3.00934 7.4304 2.85379 7.68778C2.58426 8.13381 2.40659 8.62627 2.26981 9.13554C2.23193 9.27666 2.17528 9.32017 2.0385 9.32236C1.58929 9.32894 1.16421 9.22109 0.750201 9.04524C0.315739 8.86098 0.0981731 8.49502 0.0331379 8.00694C-0.0436305 7.43296 0.0214047 6.86555 0.099514 6.29851C0.114264 6.19212 0.168572 6.18115 0.250034 6.1775C0.735786 6.15483 1.18031 5.98738 1.58393 5.6971C1.7036 5.61082 1.81725 5.50553 1.91212 5.38854C2.08644 5.1732 2.03414 4.9798 1.77803 4.94909C1.46995 4.9118 1.1565 4.92167 0.845407 4.9213C0.752883 4.9213 0.660694 4.95677 0.527606 4.98455L0.529283 4.98419ZM14.4703 0.547662C14.4049 0.547662 14.3503 0.544737 14.296 0.548028C13.2708 0.610545 12.246 0.68403 11.2202 0.733386C10.5859 0.76373 10.0512 1.01051 9.60705 1.50077C9.5913 1.51796 9.57353 1.53295 9.55744 1.54976C9.04856 2.07951 8.54034 2.61 8.03113 3.13938C7.94832 3.2253 7.86183 3.30719 7.74785 3.42016C7.84105 3.42638 7.89469 3.43259 7.94799 3.43296C8.22724 3.43405 8.50648 3.43332 8.78573 3.43332C10.4723 3.43332 12.1585 3.43186 13.8451 3.43588C13.9788 3.43588 14.0395 3.4081 14.0583 3.24394C14.1069 2.81583 14.1766 2.39027 14.2427 1.96472C14.3151 1.49822 14.3925 1.03281 14.4706 0.547297L14.4703 0.547662ZM15.0586 0.503425C14.9081 1.492 14.8233 2.44475 14.8447 3.41797H20.0147C19.9963 3.37227 19.9882 3.34375 19.9741 3.31926C19.4596 2.41513 18.9463 1.50955 18.4247 0.610179C18.3905 0.550952 18.2896 0.508909 18.2192 0.507812C17.5833 0.500135 16.947 0.503425 16.3107 0.503425C15.8987 0.503425 15.4867 0.503425 15.0583 0.503425H15.0586ZM19.1806 0.56192C19.1823 0.566308 19.186 0.584587 19.1954 0.59848C19.7968 1.51284 20.3975 2.42756 21.0033 3.33827C21.0358 3.38726 21.1116 3.42893 21.1672 3.42893C21.5296 3.42893 21.8933 3.43369 22.2544 3.40481C22.7237 3.36751 23.1099 3.1445 23.3714 2.70396C23.3985 2.65826 23.4143 2.57307 23.3935 2.5303C23.0298 1.78704 22.5424 1.16406 21.8729 0.727536C21.8139 0.688783 21.7388 0.667212 21.6694 0.660997C21.2638 0.624072 20.8581 0.580931 20.4515 0.565211C20.0301 0.549125 19.6077 0.561555 19.181 0.561555L19.1806 0.56192ZM12.6607 4.91582C12.8333 4.91582 13.006 4.91984 13.1783 4.91472C13.3409 4.90997 13.4425 4.80358 13.4408 4.65222C13.4391 4.50964 13.3389 4.39521 13.1904 4.39265C12.8454 4.38643 12.5001 4.38643 12.1552 4.39192C12.0006 4.39448 11.8933 4.51951 11.8997 4.66612C11.9057 4.80687 12.0087 4.90997 12.1599 4.91472C12.3268 4.91984 12.4937 4.91582 12.6607 4.91582ZM18.0318 4.91582C18.2048 4.91582 18.3781 4.91947 18.5511 4.91472C18.719 4.90997 18.8129 4.81089 18.8112 4.65149C18.8095 4.50306 18.7153 4.39448 18.5625 4.39192C18.2162 4.38607 17.8699 4.38534 17.5239 4.39192C17.3721 4.39484 17.2792 4.50745 17.2805 4.65698C17.2815 4.8087 17.3724 4.90778 17.5296 4.91362C17.6969 4.91984 17.8645 4.91509 18.0321 4.91545L18.0318 4.91582Z" fill="white" fill-opacity="0.6"/>
<path d="M4.89493 11.9999C3.66093 12.0036 2.67099 10.9254 2.67065 9.57783C2.67032 8.23316 3.66361 7.14514 4.89124 7.14551C6.11718 7.14587 7.12355 8.24157 7.12121 9.5738C7.11886 10.9177 6.12925 11.9963 4.89493 11.9999ZM4.8785 10.9905C5.59489 11.0011 6.18423 10.3748 6.19529 9.59208C6.20602 8.82031 5.6207 8.16772 4.90766 8.15712C4.19697 8.14651 3.60595 8.77717 3.59221 9.56028C3.57847 10.3357 4.15808 10.9799 4.8785 10.9905Z" fill="white" fill-opacity="0.6"/>
<path d="M18.0566 9.57053C18.0576 8.22806 19.0563 7.14077 20.2843 7.14552C21.5045 7.15028 22.5005 8.23281 22.5079 9.56285C22.5152 10.9093 21.5152 12.001 20.2749 11.9999C19.0405 11.9992 18.0556 10.9207 18.0566 9.57053ZM20.2692 10.9905C20.9849 10.9986 21.5739 10.369 21.582 9.58735C21.59 8.81484 21.0017 8.16408 20.2896 8.15677C19.5783 8.14982 18.9879 8.7834 18.9775 9.56468C18.9671 10.3401 19.5488 10.9821 20.2688 10.9901L20.2692 10.9905Z" fill="white" fill-opacity="0.6"/>
</svg>
