<svg width="44" height="18" viewBox="0 0 44 18" fill="none" xmlns="http://www.w3.org/2000/svg">
<path d="M0.913804 9.55656C1.50684 8.52125 2.29563 7.9148 3.34658 7.79704C5.97685 7.50232 8.60885 7.22334 11.2426 6.97333C11.8212 6.91854 12.3034 6.7208 12.7168 6.29761C13.6644 5.32905 14.6056 4.35357 15.555 3.38754C15.85 3.08714 16.163 2.80754 16.4656 2.51533C17.1689 1.8352 17.9947 1.51529 18.9284 1.42587C24.2473 0.917658 29.5753 0.893728 34.9058 1.07195C36.0093 1.1091 37.1093 1.26024 38.2105 1.36667C38.6747 1.41138 39.079 1.61731 39.4272 1.95612C40.6819 3.1772 41.7104 4.59225 42.4801 6.2233C42.6175 6.51487 42.6851 6.84612 42.8012 7.20886C42.1793 7.20886 41.6232 7.20886 41.0671 7.20886C40.7449 7.20886 40.6877 7.26805 40.6796 7.62701C40.6664 8.20197 40.8812 8.68814 41.197 9.12644C41.6122 9.70203 42.1608 10.0881 42.7729 10.3614C42.9681 10.4483 43.0287 10.5629 43.035 10.777C43.0755 12.0359 43.1038 13.2935 42.9074 14.5429C42.8526 14.8931 42.6961 15.162 42.4518 15.3893C41.704 16.0852 40.8413 16.565 39.944 16.9794C39.7344 17.0764 39.6062 17.0317 39.5161 16.7571C39.2903 16.0682 39.0432 15.3855 38.7689 14.718C38.3566 13.7142 37.6388 13.1178 36.6514 12.8609C35.2037 12.483 33.7965 12.5365 32.4158 13.1776C31.9585 13.3898 31.6461 13.7589 31.3816 14.1921C30.9081 14.968 30.602 15.8263 30.3595 16.713C30.2989 16.9347 30.2192 17.0273 29.9888 17.0273C24.4649 17.0191 18.9411 17.0191 13.4178 17.026C13.2036 17.026 13.1303 16.9416 13.0575 16.7344C12.8005 16.0027 12.5401 15.2696 12.2352 14.5599C11.8685 13.706 11.2409 13.1789 10.4001 12.9245C8.89353 12.4679 7.42162 12.5082 5.96992 13.1751C5.50161 13.3905 5.18575 13.7702 4.91782 14.2136C4.45355 14.9819 4.1475 15.8301 3.9119 16.7074C3.84665 16.9504 3.74906 17.0254 3.51347 17.0292C2.73969 17.0405 2.00749 16.8547 1.29434 16.5518C0.54597 16.2344 0.171208 15.604 0.0591834 14.7633C-0.0730518 13.7746 0.0389728 12.7973 0.173518 11.8205C0.198925 11.6373 0.292472 11.6184 0.432791 11.6121C1.26951 11.573 2.0352 11.2846 2.73045 10.7846C2.9366 10.636 3.13235 10.4546 3.29577 10.2531C3.59604 9.88214 3.50596 9.549 3.06479 9.4961C2.53412 9.43187 1.99421 9.44887 1.45834 9.44824C1.29896 9.44824 1.14016 9.50933 0.910917 9.55719L0.913804 9.55656ZM24.9275 1.91455C24.8149 1.91455 24.7208 1.90951 24.6272 1.91518C22.8614 2.02287 21.0961 2.14945 19.3291 2.23446C18.2366 2.28673 17.3156 2.71181 16.5505 3.55631C16.5233 3.58591 16.4927 3.61173 16.465 3.64069C15.5884 4.5532 14.713 5.46697 13.8359 6.37885C13.6933 6.52684 13.5443 6.6679 13.348 6.86249C13.5085 6.8732 13.6009 6.8839 13.6927 6.88453C14.1737 6.88642 14.6547 6.88516 15.1357 6.88516C18.0409 6.88516 20.9454 6.88265 23.8505 6.88957C24.0809 6.88957 24.1855 6.84171 24.2178 6.55895C24.3015 5.82152 24.4216 5.08849 24.5354 4.35546C24.6601 3.5519 24.7935 2.75023 24.9281 1.91392L24.9275 1.91455ZM25.9409 1.83835C25.6816 3.54119 25.5355 5.18232 25.5725 6.85871H34.4779C34.4461 6.78 34.4322 6.73088 34.408 6.68868C33.5216 5.13131 32.6375 3.57142 31.739 2.02224C31.6801 1.92022 31.5063 1.8478 31.3851 1.84591C30.2896 1.83268 29.1937 1.83835 28.0977 1.83835C27.388 1.83835 26.6783 1.83835 25.9403 1.83835H25.9409ZM33.0412 1.93911C33.0441 1.94667 33.0504 1.97816 33.0666 2.00209C34.1025 3.57709 35.1373 5.15272 36.1808 6.72143C36.2368 6.80582 36.3673 6.87761 36.4631 6.87761C37.0873 6.87761 37.7139 6.88579 38.3358 6.83604C39.1442 6.77181 39.8094 6.38766 40.2598 5.62881C40.3066 5.5501 40.3337 5.40336 40.2979 5.32968C39.6714 4.0494 38.8318 2.97631 37.6786 2.22439C37.577 2.15763 37.4477 2.12048 37.3281 2.10977C36.6294 2.04617 35.9307 1.97186 35.2303 1.94478C34.5044 1.91707 33.7768 1.93848 33.0418 1.93848L33.0412 1.93911ZM21.8104 9.4388C22.1078 9.4388 22.4052 9.44572 22.702 9.43691C22.9821 9.42872 23.157 9.24547 23.1541 8.98475C23.1513 8.73915 22.9786 8.54204 22.7228 8.53763C22.1286 8.52692 21.5338 8.52692 20.9396 8.53637C20.6734 8.54078 20.4887 8.75615 20.4996 9.00868C20.51 9.25113 20.6873 9.42872 20.9477 9.43691C21.2353 9.44572 21.5229 9.4388 21.8104 9.4388ZM31.0623 9.4388C31.3602 9.4388 31.6588 9.4451 31.9567 9.43691C32.246 9.42872 32.4077 9.25806 32.4048 8.98349C32.4019 8.72781 32.2397 8.54078 31.9764 8.53637C31.3799 8.52629 30.7834 8.52503 30.1874 8.53637C29.9259 8.54141 29.7659 8.73537 29.7682 8.99294C29.7699 9.25428 29.9264 9.42494 30.1973 9.43502C30.4854 9.44572 30.7741 9.43754 31.0628 9.43817L31.0623 9.4388Z" fill="white" fill-opacity="0.6"/>
</svg>
