<svg width="16" height="16" viewBox="0 0 16 16" fill="none" xmlns="http://www.w3.org/2000/svg">
<path fill-rule="evenodd" clip-rule="evenodd" d="M4.75 2.75C4.75 2.19772 5.19772 1.75 5.75 1.75C6.30228 1.75 6.75 2.19772 6.75 2.75C6.75 3.30228 6.30228 3.75 5.75 3.75C5.19772 3.75 4.75 3.30228 4.75 2.75ZM3.81301 2.25H1.25C0.973858 2.25 0.75 2.47386 0.75 2.75C0.75 3.02614 0.973858 3.25 1.25 3.25H3.81301C4.03503 4.11261 4.81808 4.75 5.75 4.75C6.68192 4.75 7.46497 4.11261 7.68699 3.25H14.75C15.0261 3.25 15.25 3.02614 15.25 2.75C15.25 2.47386 15.0261 2.25 14.75 2.25H7.68699C7.46497 1.38739 6.68192 0.75 5.75 0.75C4.81808 0.75 4.03503 1.38739 3.81301 2.25ZM1.25 7.5C0.973858 7.5 0.75 7.72386 0.75 8C0.75 8.27614 0.973858 8.5 1.25 8.5H9.81301C10.035 9.36261 10.8181 10 11.75 10C12.6819 10 13.465 9.36261 13.687 8.5H14.75C15.0261 8.5 15.25 8.27614 15.25 8C15.25 7.72386 15.0261 7.5 14.75 7.5H13.687C13.465 6.63739 12.6819 6 11.75 6C10.8181 6 10.035 6.63739 9.81301 7.5H1.25ZM11.75 7C12.3023 7 12.75 7.44772 12.75 8C12.75 8.55228 12.3023 9 11.75 9C11.1977 9 10.75 8.55228 10.75 8C10.75 7.44772 11.1977 7 11.75 7ZM1.25 12.75C0.973858 12.75 0.75 12.9739 0.75 13.25C0.75 13.5261 0.973858 13.75 1.25 13.75H2.31301C2.53503 14.6126 3.31808 15.25 4.25 15.25C5.18192 15.25 5.96497 14.6126 6.18699 13.75H14.75C15.0261 13.75 15.25 13.5261 15.25 13.25C15.25 12.9739 15.0261 12.75 14.75 12.75H6.18699C5.96497 11.8874 5.18192 11.25 4.25 11.25C3.31808 11.25 2.53503 11.8874 2.31301 12.75H1.25ZM5.25 13.25C5.25 12.6977 4.80228 12.25 4.25 12.25C3.69772 12.25 3.25 12.6977 3.25 13.25C3.25 13.8023 3.69772 14.25 4.25 14.25C4.80228 14.25 5.25 13.8023 5.25 13.25Z" fill="white" fill-opacity="0.87"/>
</svg>
