<svg width="20" height="19" viewBox="0 0 20 19" fill="none" xmlns="http://www.w3.org/2000/svg">
<path d="M18 0.982422C18.5304 0.982422 19.0391 1.19314 19.4142 1.56821C19.7893 1.94328 20 2.45199 20 2.98242V16.9824C20 17.5129 19.7893 18.0216 19.4142 18.3966C19.0391 18.7717 18.5304 18.9824 18 18.9824H2C1.46957 18.9824 0.960859 18.7717 0.585786 18.3966C0.210714 18.0216 0 17.5129 0 16.9824V2.98242C0 2.45199 0.210714 1.94328 0.585786 1.56821C0.960859 1.19314 1.46957 0.982422 2 0.982422H18ZM15 12.9824H5C4.73478 12.9824 4.48043 13.0878 4.29289 13.2753C4.10536 13.4629 4 13.7172 4 13.9824C4 14.2476 4.10536 14.502 4.29289 14.6895C4.48043 14.8771 4.73478 14.9824 5 14.9824H15C15.2652 14.9824 15.5196 14.8771 15.7071 14.6895C15.8946 14.502 16 14.2476 16 13.9824C16 13.7172 15.8946 13.4629 15.7071 13.2753C15.5196 13.0878 15.2652 12.9824 15 12.9824ZM8 4.98242H6C5.49542 4.98226 5.00943 5.17283 4.63945 5.51592C4.26947 5.85901 4.04284 6.32927 4.005 6.83242L4 6.98242V8.98242C3.99984 9.487 4.19041 9.97299 4.5335 10.343C4.87659 10.713 5.34684 10.9396 5.85 10.9774L6 10.9824H8C8.50458 10.9826 8.99057 10.792 9.36055 10.4489C9.73053 10.1058 9.95716 9.63558 9.995 9.13242L10 8.98242V6.98242C10.0002 6.47785 9.80959 5.99186 9.4665 5.62187C9.12341 5.25189 8.65316 5.02527 8.15 4.98742L8 4.98242ZM15 8.98242H12C11.7451 8.9827 11.5 9.0803 11.3146 9.25527C11.1293 9.43024 11.0178 9.66938 11.0028 9.92382C10.9879 10.1783 11.0707 10.4288 11.2343 10.6243C11.3979 10.8197 11.6299 10.9453 11.883 10.9754L12 10.9824H15C15.2549 10.9821 15.5 10.8845 15.6854 10.7096C15.8707 10.5346 15.9822 10.2955 15.9972 10.041C16.0121 9.78659 15.9293 9.53604 15.7657 9.34059C15.6021 9.14514 15.3701 9.01953 15.117 8.98942L15 8.98242ZM8 6.98242V8.98242H6V6.98242H8ZM15 4.98242H12C11.7348 4.98242 11.4804 5.08778 11.2929 5.27532C11.1054 5.46285 11 5.71721 11 5.98242C11 6.24764 11.1054 6.50199 11.2929 6.68953C11.4804 6.87706 11.7348 6.98242 12 6.98242H15C15.2652 6.98242 15.5196 6.87706 15.7071 6.68953C15.8946 6.50199 16 6.24764 16 5.98242C16 5.71721 15.8946 5.46285 15.7071 5.27532C15.5196 5.08778 15.2652 4.98242 15 4.98242Z" fill="white" fill-opacity="0.87"/>
</svg>
