<svg width="35" height="24" viewBox="0 0 35 24" fill="none" xmlns="http://www.w3.org/2000/svg">
<path d="M0 23.7697V0.230469H3.13856V15.9233H15.6928V3.36903H28.247C29.9733 3.36903 31.451 3.98366 32.6803 5.21293C33.9095 6.4422 34.5242 7.91994 34.5242 9.64615V23.7697H31.3856V19.0618H3.13856V23.7697H0ZM9.41568 14.354C8.10795 14.354 6.99638 13.8963 6.08096 12.9809C5.16555 12.0655 4.70784 10.9539 4.70784 9.64615C4.70784 8.33842 5.16555 7.22684 6.08096 6.31143C6.99638 5.39602 8.10795 4.93831 9.41568 4.93831C10.7234 4.93831 11.835 5.39602 12.7504 6.31143C13.6658 7.22684 14.1235 8.33842 14.1235 9.64615C14.1235 10.9539 13.6658 12.0655 12.7504 12.9809C11.835 13.8963 10.7234 14.354 9.41568 14.354Z" fill="white" fill-opacity="0.6"/>
</svg>
