<svg width="19" height="14" viewBox="0 0 19 14" fill="none" xmlns="http://www.w3.org/2000/svg">
<path d="M15.4567 2.53542H8.96346V8.21699H2.47023V0.912109H0.846924V13.0869H2.47023V10.652H17.08V13.0869H18.7033V5.78203C18.7033 4.92098 18.3613 4.09519 17.7524 3.48633C17.1435 2.87747 16.3177 2.53542 15.4567 2.53542ZM5.71685 7.40534C6.36264 7.40534 6.98198 7.1488 7.43862 6.69216C7.89527 6.23551 8.15181 5.61617 8.15181 4.97038C8.15181 4.32459 7.89527 3.70524 7.43862 3.2486C6.98198 2.79196 6.36264 2.53542 5.71685 2.53542C5.07105 2.53542 4.45171 2.79196 3.99507 3.2486C3.53842 3.70524 3.28188 4.32459 3.28188 4.97038C3.28188 5.61617 3.53842 6.23551 3.99507 6.69216C4.45171 7.1488 5.07105 7.40534 5.71685 7.40534Z" fill="white" fill-opacity="0.6"/>
</svg>
