<svg width="14" height="14" viewBox="0 0 14 14" fill="none" xmlns="http://www.w3.org/2000/svg">
<path d="M5.25008 1.1665C3.72175 1.1665 2.47925 2.409 2.47925 3.93734C2.47925 5.4365 3.65175 6.64984 5.18008 6.70234C5.22675 6.6965 5.27341 6.6965 5.30841 6.70234C5.32008 6.70234 5.32591 6.70234 5.33758 6.70234C5.34341 6.70234 5.34341 6.70234 5.34925 6.70234C6.84258 6.64984 8.01508 5.4365 8.02091 3.93734C8.02091 2.409 6.77841 1.1665 5.25008 1.1665Z" fill="white" fill-opacity="0.6"/>
<path d="M8.21331 8.25418C6.58581 7.16918 3.93164 7.16918 2.29248 8.25418C1.55164 8.75001 1.14331 9.42085 1.14331 10.1383C1.14331 10.8558 1.55164 11.5208 2.28664 12.0108C3.10331 12.5592 4.17664 12.8333 5.24998 12.8333C6.32331 12.8333 7.39664 12.5592 8.21331 12.0108C8.94831 11.515 9.35664 10.85 9.35664 10.1267C9.35081 9.40918 8.94831 8.74418 8.21331 8.25418Z" fill="white" fill-opacity="0.6"/>
<path d="M11.6607 4.28156C11.754 5.41323 10.949 6.4049 9.83488 6.53906C9.82905 6.53906 9.82905 6.53906 9.82321 6.53906H9.80571C9.77071 6.53906 9.73571 6.53906 9.70655 6.55073C9.14071 6.5799 8.62155 6.39906 8.23071 6.06656C8.83155 5.5299 9.17571 4.7249 9.10571 3.8499C9.06488 3.3774 8.90155 2.94573 8.65655 2.57823C8.87821 2.4674 9.13488 2.3974 9.39738 2.37406C10.5407 2.2749 11.5615 3.12656 11.6607 4.28156Z" fill="white" fill-opacity="0.6"/>
<path d="M12.8276 9.67757C12.7809 10.2434 12.4192 10.7334 11.8126 11.0659C11.2292 11.3867 10.4942 11.5384 9.76506 11.5209C10.1851 11.1417 10.4301 10.6692 10.4767 10.1676C10.5351 9.44424 10.1909 8.75007 9.50256 8.1959C9.11172 7.88674 8.65672 7.64173 8.16089 7.4609C9.45006 7.08757 11.0717 7.3384 12.0692 8.1434C12.6059 8.57507 12.8801 9.11757 12.8276 9.67757Z" fill="white" fill-opacity="0.6"/>
</svg>
