<svg width="18" height="18" viewBox="0 0 18 18" fill="none" xmlns="http://www.w3.org/2000/svg">
<path d="M9 18C6.7 18 4.696 17.2377 2.988 15.713C1.28 14.1883 0.300667 12.284 0.05 10H2.1C2.33333 11.7333 3.10433 13.1667 4.413 14.3C5.72167 15.4333 7.25067 16 9 16C10.95 16 12.6043 15.321 13.963 13.963C15.3217 12.605 16.0007 10.9507 16 9C15.9993 7.04933 15.3203 5.39533 13.963 4.038C12.6057 2.68067 10.9513 2.00133 9 2C7.85 2 6.775 2.26667 5.775 2.8C4.775 3.33333 3.93333 4.06667 3.25 5H6V7H0V1H2V3.35C2.85 2.28333 3.88767 1.45833 5.113 0.875C6.33833 0.291667 7.634 0 9 0C10.25 0 11.421 0.237667 12.513 0.713C13.605 1.18833 14.555 1.82967 15.363 2.637C16.171 3.44433 16.8127 4.39433 17.288 5.487C17.7633 6.57967 18.0007 7.75067 18 9C17.9993 10.2493 17.762 11.4203 17.288 12.513C16.814 13.6057 16.1723 14.5557 15.363 15.363C14.5537 16.1703 13.6037 16.812 12.513 17.288C11.4223 17.764 10.2513 18.0013 9 18ZM11.8 13.2L8 9.4V4H10V8.6L13.2 11.8L11.8 13.2Z" fill="white" fill-opacity="0.87"/>
</svg>
