<svg width="22" height="22" viewBox="0 0 22 22" fill="none" xmlns="http://www.w3.org/2000/svg">
<path d="M21.7429 20.4478L16.2758 14.9807C17.7656 13.1586 18.4982 10.8335 18.3218 8.48647C18.1455 6.13941 17.0738 3.94992 15.3284 2.37087C13.583 0.791825 11.2974 -0.0559616 8.9445 0.00286919C6.59156 0.0617 4.35124 1.02265 2.68695 2.68695C1.02265 4.35124 0.0617 6.59156 0.00286919 8.9445C-0.0559616 11.2974 0.791825 13.583 2.37087 15.3284C3.94992 17.0738 6.13941 18.1455 8.48647 18.3218C10.8335 18.4982 13.1586 17.7656 14.9807 16.2758L20.4478 21.7429C20.6205 21.9097 20.8519 22.0021 21.092 22C21.3322 21.9979 21.5619 21.9016 21.7317 21.7317C21.9016 21.5619 21.9979 21.3322 22 21.092C22.0021 20.8519 21.9097 20.6205 21.7429 20.4478ZM9.18846 16.5158C7.73925 16.5158 6.32259 16.086 5.11762 15.2809C3.91265 14.4758 2.97349 13.3314 2.4189 11.9925C1.86432 10.6536 1.71921 9.18033 2.00194 7.75897C2.28466 6.33761 2.98252 5.03201 4.00727 4.00727C5.03201 2.98252 6.33761 2.28466 7.75897 2.00194C9.18033 1.71921 10.6536 1.86432 11.9925 2.4189C13.3314 2.97349 14.4758 3.91265 15.2809 5.11762C16.086 6.32259 16.5158 7.73925 16.5158 9.18846C16.5136 11.1311 15.7409 12.9936 14.3672 14.3672C12.9936 15.7409 11.1311 16.5136 9.18846 16.5158Z" fill="white" fill-opacity="0.6"/>
</svg>
