<svg width="18" height="17" viewBox="0 0 18 17" fill="none" xmlns="http://www.w3.org/2000/svg">
<path d="M9 15.3C10.8035 15.3 12.5331 14.5836 13.8083 13.3083C15.0836 12.0331 15.8 10.3035 15.8 8.5C15.8 6.69653 15.0836 4.96692 13.8083 3.69167C12.5331 2.41643 10.8035 1.7 9 1.7C7.19653 1.7 5.46692 2.41643 4.19167 3.69167C2.91643 4.96692 2.2 6.69653 2.2 8.5C2.2 10.3035 2.91643 12.0331 4.19167 13.3083C5.46692 14.5836 7.19653 15.3 9 15.3ZM9 0C10.1162 0 11.2215 0.219859 12.2528 0.647024C13.2841 1.07419 14.2211 1.70029 15.0104 2.48959C15.7997 3.27889 16.4258 4.21592 16.853 5.24719C17.2801 6.27846 17.5 7.38376 17.5 8.5C17.5 10.7543 16.6045 12.9163 15.0104 14.5104C13.4163 16.1045 11.2543 17 9 17C4.2995 17 0.5 13.175 0.5 8.5C0.5 6.24566 1.39553 4.08365 2.98959 2.48959C4.58365 0.895533 6.74566 0 9 0ZM9.425 4.25V8.7125L13.25 10.982L12.6125 12.0275L8.15 9.35V4.25H9.425Z" fill="white" fill-opacity="0.87"/>
</svg>
