<svg width="25" height="24" viewBox="0 0 25 24" fill="none" xmlns="http://www.w3.org/2000/svg">
<path d="M12.75 14.9922C11.0932 14.9922 9.75 16.3353 9.75 17.9922V23.9922H15.75V17.9922C15.75 16.3353 14.4068 14.9922 12.75 14.9922Z" fill="white"/>
<path d="M17.75 17.9924V23.9924H21.75C23.4068 23.9924 24.75 22.6492 24.75 20.9924V11.8714C24.7502 11.3519 24.5483 10.8527 24.187 10.4794L15.689 1.29236C14.1896 -0.329979 11.6589 -0.429588 10.0365 1.06985C9.95949 1.1411 9.88523 1.2153 9.81403 1.29236L1.33102 10.4764C0.958734 10.8512 0.749859 11.3581 0.75 11.8864V20.9924C0.75 22.6492 2.09316 23.9924 3.75 23.9924H7.74998V17.9924C7.76869 15.2656 9.97027 13.0388 12.6284 12.9747C15.3755 12.9084 17.7291 15.1731 17.75 17.9924Z" fill="white"/>
<path d="M12.75 14.9922C11.0932 14.9922 9.75 16.3353 9.75 17.9922V23.9922H15.75V17.9922C15.75 16.3353 14.4068 14.9922 12.75 14.9922Z" fill="white"/>
</svg>
