<svg width="22" height="20" viewBox="0 0 22 20" fill="none" xmlns="http://www.w3.org/2000/svg">
<path d="M19.25 4.50016H4.58333C3.79592 4.50016 3.05067 4.15916 2.53458 3.58441C3.03875 3.02158 3.77117 2.66683 4.58333 2.66683H21.0833C21.5903 2.66683 22 2.25616 22 1.75016C22 1.24416 21.5903 0.833496 21.0833 0.833496H4.58333C2.05242 0.833496 0 2.88591 0 5.41683V14.5835C0 17.1144 2.05242 19.1668 4.58333 19.1668H19.25C20.7689 19.1668 22 17.9357 22 16.4168V7.25016C22 5.73125 20.7689 4.50016 19.25 4.50016ZM20.1667 16.4168C20.1667 16.9219 19.756 17.3335 19.25 17.3335H4.58333C3.06717 17.3335 1.83333 16.0997 1.83333 14.5835V5.415C2.61617 6.00075 3.57867 6.3335 4.58333 6.3335H19.25C19.756 6.3335 20.1667 6.74508 20.1667 7.25016V16.4168ZM18.3333 11.8335C18.3333 12.3395 17.9227 12.7502 17.4167 12.7502C16.9107 12.7502 16.5 12.3395 16.5 11.8335C16.5 11.3275 16.9107 10.9168 17.4167 10.9168C17.9227 10.9168 18.3333 11.3275 18.3333 11.8335Z" fill="white" fill-opacity="0.87"/>
</svg>
