<svg width="17" height="17" viewBox="0 0 17 17" fill="none" xmlns="http://www.w3.org/2000/svg">
<g clip-path="url(#clip0_3078_2035)">
<path fill-rule="evenodd" clip-rule="evenodd" d="M10.853 11.9829C10.8501 11.9788 10.8571 11.9885 10.853 11.9829C10.8424 11.9684 10.8316 11.9542 10.8205 11.9402C10.7847 11.8952 10.747 11.8517 10.7074 11.8099C10.6102 11.7067 10.4671 11.5744 10.274 11.4435C9.88396 11.1792 9.29874 10.9277 8.5 10.9277C7.70125 10.9277 7.11603 11.1792 6.726 11.4435C6.53288 11.5744 6.38981 11.7067 6.29256 11.8099C6.25302 11.8517 6.2153 11.8952 6.1795 11.9402C6.16607 11.9572 6.18775 11.9289 6.1795 11.9402L6.12994 12.0071C6.06409 12.1046 6.03469 12.2221 6.04689 12.339C6.05909 12.456 6.11212 12.5649 6.19666 12.6466L8.15247 14.5372C8.34628 14.7246 8.65368 14.7246 8.84749 14.5372L10.8033 12.6466C10.8879 12.5649 10.9409 12.456 10.9531 12.339C10.9653 12.2221 10.9359 12.1046 10.8701 12.0071L10.853 11.9829Z" fill="white" fill-opacity="0.87"/>
<path fill-rule="evenodd" clip-rule="evenodd" d="M13.6588 9.36091C13.6546 9.3541 13.6402 9.33073 13.6335 9.32029C13.6152 9.29239 13.5964 9.26489 13.5769 9.23782C13.5284 9.17023 13.4577 9.07857 13.3625 8.97107C13.1719 8.75607 12.8824 8.47726 12.4745 8.20117C11.6535 7.64551 10.3739 7.11523 8.49992 7.11523C6.62595 7.11523 5.34633 7.64551 4.52537 8.20117C4.1174 8.47726 3.82793 8.75607 3.63734 8.97107C3.54206 9.07857 3.4714 9.17023 3.42293 9.23782C3.40346 9.26488 3.3846 9.29238 3.36637 9.32029C3.35962 9.33075 3.35413 9.33938 3.3499 9.3462L3.341 9.36091C3.28375 9.45781 3.26087 9.57119 3.27606 9.68271C3.29125 9.79422 3.34361 9.89735 3.42468 9.97541L4.52812 11.0379C4.57648 11.0845 4.63373 11.1208 4.69645 11.1448C4.75917 11.1688 4.82607 11.1799 4.89317 11.1774C4.96027 11.175 5.02619 11.159 5.08699 11.1305C5.1478 11.1021 5.20224 11.0616 5.24708 11.0117L5.25318 11.0051C5.25965 10.9983 5.27083 10.9867 5.28674 10.9709C5.33542 10.9229 5.38577 10.8767 5.43771 10.8323C5.57527 10.714 5.78436 10.5527 6.0613 10.3903C6.61424 10.0663 7.43408 9.74023 8.49992 9.74023C9.56576 9.74023 10.3856 10.0663 10.9385 10.3903C11.2155 10.5527 11.4246 10.714 11.5621 10.8323C11.6141 10.8767 11.6644 10.9229 11.7131 10.9709C11.7266 10.9842 11.7398 10.9978 11.7528 11.0117L11.7526 11.0115L11.7522 11.011M11.7522 11.011L11.753 11.0119C11.7979 11.0618 11.8523 11.1022 11.9131 11.1306C11.9739 11.1591 12.0398 11.175 12.1068 11.1774C12.1739 11.1798 12.2408 11.1687 12.3035 11.1448C12.3662 11.1208 12.4234 11.0845 12.4717 11.0379L13.5752 9.97541C13.6562 9.89735 13.7086 9.79422 13.7238 9.68271C13.739 9.57119 13.7161 9.45781 13.6588 9.36091" fill="white" fill-opacity="0.87"/>
<path d="M16.3742 6.59222C16.3849 6.60657 16.4111 6.64313 16.4111 6.64313C16.4785 6.74057 16.5092 6.8588 16.4976 6.97674C16.486 7.09468 16.4328 7.20466 16.3477 7.28707L15.2011 8.39644C15.1519 8.44406 15.0934 8.48106 15.0293 8.50515C14.9652 8.52924 14.8968 8.5399 14.8284 8.53647C14.76 8.53304 14.693 8.5156 14.6317 8.48522C14.5703 8.45484 14.5158 8.41218 14.4716 8.35987L14.4715 8.35978L14.4688 8.35669C14.4659 8.35335 14.4609 8.34765 14.4538 8.33956C14.4312 8.31444 14.4084 8.28966 14.3851 8.26522C14.3223 8.19909 14.2259 8.10181 14.0967 7.98366C13.8381 7.74713 13.4501 7.42853 12.9405 7.10925C11.9218 6.47097 10.4244 5.83398 8.5 5.83398C6.57563 5.83398 5.07816 6.47097 4.05945 7.10925C3.54986 7.42853 3.16189 7.74713 2.9033 7.98366C2.77414 8.10181 2.67767 8.19909 2.61489 8.26522C2.59164 8.28966 2.56875 8.31444 2.54623 8.33956C2.53905 8.34765 2.53403 8.35335 2.53117 8.35669L2.5297 8.35837L2.52877 8.35944L2.52864 8.35962L2.52852 8.35978L2.52839 8.35991C2.48418 8.4122 2.42969 8.45486 2.36831 8.48523C2.30693 8.51561 2.23997 8.53304 2.17157 8.53647C2.10317 8.5399 2.0348 8.52923 1.97069 8.50515C1.90659 8.48106 1.84811 8.44406 1.79889 8.39644L0.652334 7.28707C0.567162 7.20466 0.514028 7.09468 0.50241 6.97674C0.490791 6.8588 0.521442 6.74057 0.588897 6.64313L0.58924 6.64263L0.589647 6.6421L0.590584 6.64075L0.593053 6.63722L0.600553 6.62669C0.606699 6.61809 0.615126 6.6066 0.625834 6.59222C0.647271 6.56347 0.677928 6.52351 0.71799 6.47391C0.798083 6.37472 0.915958 6.23688 1.07321 6.07335C1.38749 5.74648 1.86024 5.31582 2.50392 4.8867C3.79492 4.02604 5.76501 3.17773 8.5 3.17773C11.235 3.17773 13.2051 4.02604 14.4961 4.8867C15.1398 5.31582 15.6125 5.74648 15.9268 6.07335C16.084 6.23688 16.2019 6.37472 16.282 6.47391C16.3135 6.51276 16.3442 6.5522 16.3742 6.59222Z" fill="white" fill-opacity="0.87"/>
</g>
<defs>
<clipPath id="clip0_3078_2035">
<rect width="16" height="16" fill="white" transform="translate(0.5 0.927734)"/>
</clipPath>
</defs>
</svg>
