<svg width="12" height="14" viewBox="0 0 12 14" fill="none" xmlns="http://www.w3.org/2000/svg">
<path d="M11.8115 5.83L10.9319 6.09L10.178 5.635V4.53L10.9319 4.075L11.8115 4.335L12 3.62L11.3089 3.425L11.4974 2.71L10.8063 2.515L10.555 3.425L9.80105 3.88L8.85864 3.295V2.45L9.48691 1.8L8.98429 1.28L8.48168 1.8L7.97906 1.28L7.47644 1.8L8.10471 2.45V3.295L7.1623 3.88L6.40838 3.425L6.21989 2.515L5.5288 2.71L5.71728 3.425L5.02618 3.555L5.21466 4.27L6.09424 4.01L6.84817 4.465V5.57L6.09424 6.025L5.21466 5.765L5.02618 6.61L5.71728 6.805L5.5288 7.455L6.21989 7.65L6.4712 6.74L7.22513 6.285L8.16754 6.87V7.715L7.53927 8.365L8.04188 8.885L8.5445 8.365L9.04712 8.885L9.54974 8.365L8.92147 7.715V6.87L9.86387 6.285L10.6178 6.74L10.8691 7.65L11.5602 7.455L11.3089 6.74L12 6.545L11.8115 5.83ZM7.53927 4.53L8.48168 3.945L9.42408 4.53V5.635L8.48168 6.22L7.53927 5.635V4.53ZM1.88482 10.9C1.88482 10.9 0 5.7 0 3.1C0 0.5 1.25654 0.5 1.25654 0.5H1.88482C1.88482 0.5 2.51309 0.5 2.51309 1.15C2.51309 1.8 1.88482 1.8 1.88482 3.1C1.88482 4.4 3.76963 5.7 3.76963 7.65C3.76963 9.6 1.88482 10.9 1.88482 10.9ZM8.16754 10.25C8.85864 10.25 9.42408 10.835 9.42408 11.55V12.2C9.42408 12.915 8.85864 13.5 8.16754 13.5H4.39791C3.14136 13.5 2.51309 12.33 2.51309 12.33C2.38743 12.2 2.32461 11.94 2.51309 11.81C2.51309 11.81 4.39791 10.185 5.02618 10.185H8.16754V10.25Z" fill="white" fill-opacity="0.6"/>
</svg>
