<svg width="13" height="12" viewBox="0 0 13 12" fill="none" xmlns="http://www.w3.org/2000/svg">
<path d="M12.406 10.5831H11.0831V0.881923C11.0831 0.648023 10.9902 0.423702 10.8248 0.258309C10.6594 0.0929166 10.4351 0 10.2012 0H3.14577C2.91187 0 2.68755 0.0929166 2.52216 0.258309C2.35676 0.423702 2.26385 0.648023 2.26385 0.881923V10.5831H0.940962C0.824011 10.5831 0.711851 10.6295 0.629155 10.7122C0.546458 10.7949 0.5 10.9071 0.5 11.024C0.5 11.141 0.546458 11.2531 0.629155 11.3358C0.711851 11.4185 0.824011 11.465 0.940962 11.465H12.406C12.5229 11.465 12.6351 11.4185 12.7178 11.3358C12.8005 11.2531 12.8469 11.141 12.8469 11.024C12.8469 10.9071 12.8005 10.7949 12.7178 10.7122C12.6351 10.6295 12.5229 10.5831 12.406 10.5831ZM8.65779 6.61442C8.52697 6.61442 8.39909 6.57563 8.29031 6.50295C8.18154 6.43027 8.09676 6.32697 8.0467 6.2061C7.99663 6.08524 7.98353 5.95225 8.00906 5.82394C8.03458 5.69563 8.09757 5.57778 8.19008 5.48527C8.28258 5.39277 8.40044 5.32977 8.52875 5.30425C8.65706 5.27873 8.79005 5.29183 8.91091 5.34189C9.03177 5.39195 9.13508 5.47673 9.20776 5.5855C9.28044 5.69428 9.31923 5.82216 9.31923 5.95298C9.31923 6.12841 9.24954 6.29665 9.1255 6.42069C9.00145 6.54474 8.83321 6.61442 8.65779 6.61442Z" fill="white" fill-opacity="0.6"/>
</svg>
