<svg width="34" height="35" viewBox="0 0 34 35" fill="none" xmlns="http://www.w3.org/2000/svg">
<g clip-path="url(#clip0_3079_572)">
<path d="M32.2518 6.92648C31.7342 6.71084 31.164 6.65416 30.614 6.76365C30.0641 6.87315 29.5591 7.14386 29.1635 7.54131L25.5 11.2048L19.0032 4.70798C18.4718 4.17681 17.7513 3.87842 17 3.87842C16.2487 3.87842 15.5282 4.17681 14.9968 4.70798L8.5 11.2048L4.8365 7.54131C4.44025 7.14519 3.93546 6.87543 3.38592 6.76616C2.83639 6.65689 2.26679 6.71299 1.74915 6.92739C1.2315 7.14179 0.789034 7.50485 0.477695 7.97068C0.166357 8.43651 0.000119636 8.98419 0 9.54448L0 24.5413C0.00224946 26.4192 0.749249 28.2196 2.07714 29.5475C3.40504 30.8754 5.20541 31.6224 7.08333 31.6246H26.9167C28.7946 31.6224 30.595 30.8754 31.9229 29.5475C33.2508 28.2196 33.9977 26.4192 34 24.5413V9.54448C34.0001 8.98414 33.8341 8.43635 33.523 7.97035C33.2118 7.50436 32.7694 7.14109 32.2518 6.92648Z" fill="#F9CA4F"/>
</g>
<defs>
<clipPath id="clip0_3079_572">
<rect width="34" height="34" fill="white" transform="translate(0 0.458008)"/>
</clipPath>
</defs>
</svg>
