<svg width="29" height="28" viewBox="0 0 29 28" fill="none" xmlns="http://www.w3.org/2000/svg">
<path d="M14.2614 9.20276C11.7261 9.20276 9.65707 11.2718 9.65707 13.8071C9.65707 16.3424 11.7261 18.4114 14.2614 18.4114C16.7967 18.4114 18.8657 16.3424 18.8657 13.8071C18.8657 11.2718 16.7967 9.20276 14.2614 9.20276ZM28.0709 13.8071C28.0709 11.9004 28.0882 10.011 27.9811 8.10781C27.874 5.89718 27.3697 3.93525 25.7532 2.31873C24.1332 0.698756 22.1747 0.197911 19.9641 0.090834C18.0574 -0.0162432 16.168 0.0010274 14.2648 0.0010274C12.3582 0.0010274 10.4688 -0.0162432 8.56557 0.090834C6.35494 0.197911 4.39301 0.70221 2.77649 2.31873C1.15652 3.9387 0.655675 5.89718 0.548598 8.10781C0.441521 10.0145 0.458791 11.9039 0.458791 13.8071C0.458791 15.7103 0.441521 17.6031 0.548598 19.5063C0.655675 21.717 1.15997 23.6789 2.77649 25.2954C4.39647 26.9154 6.35494 27.4162 8.56557 27.5233C10.4722 27.6304 12.3616 27.6131 14.2648 27.6131C16.1715 27.6131 18.0609 27.6304 19.9641 27.5233C22.1747 27.4162 24.1367 26.9119 25.7532 25.2954C27.3732 23.6754 27.874 21.717 27.9811 19.5063C28.0916 17.6031 28.0709 15.7137 28.0709 13.8071ZM14.2614 20.8914C10.341 20.8914 7.17702 17.7275 7.17702 13.8071C7.17702 9.88667 10.341 6.72271 14.2614 6.72271C18.1818 6.72271 21.3457 9.88667 21.3457 13.8071C21.3457 17.7275 18.1818 20.8914 14.2614 20.8914ZM21.6359 8.08708C20.7206 8.08708 19.9814 7.3479 19.9814 6.43257C19.9814 5.51723 20.7206 4.77805 21.6359 4.77805C22.5512 4.77805 23.2904 5.51723 23.2904 6.43257C23.2907 6.64992 23.2481 6.86519 23.165 7.06604C23.082 7.2669 22.9601 7.4494 22.8064 7.60309C22.6527 7.75678 22.4702 7.87864 22.2694 7.96169C22.0685 8.04475 21.8532 8.08735 21.6359 8.08708Z" fill="white" fill-opacity="0.87"/>
</svg>
