<svg width="187" height="154" viewBox="0 0 187 154" fill="none" xmlns="http://www.w3.org/2000/svg">
<path d="M102.773 11.7798H66.8367C63.6026 11.7798 60.9823 14.3782 60.9823 17.5776V96.9819C60.9823 100.188 63.6026 102.78 66.8367 102.78H102.773C106.014 102.78 108.634 100.188 108.634 96.9819V17.5776C108.634 14.3782 106.014 11.7798 102.773 11.7798ZM78.5329 14.7476C78.9886 14.2968 79.6089 14.0213 80.3051 14.0213H89.3114C90.6975 14.0213 91.8177 15.1295 91.8177 16.5007C91.8177 17.1832 91.5393 17.803 91.0836 18.2538C90.6279 18.7047 90.0013 18.9801 89.3114 18.9801H80.3051C78.919 18.9801 77.7988 17.8657 77.7988 16.5007C77.7988 15.8182 78.0772 15.1921 78.5329 14.7476ZM91.0836 97.1948C90.6342 97.6456 90.0013 97.9211 89.3114 97.9211H80.3051C78.919 97.9211 77.7988 96.8129 77.7988 95.4479C77.7988 94.7592 78.0772 94.1456 78.5329 93.6948C78.9886 93.244 79.6089 92.9685 80.3051 92.9685H89.3114C90.6975 92.9685 91.8177 94.0767 91.8177 95.4479C91.8177 96.1304 91.5393 96.7503 91.0836 97.1948ZM104.457 90.3388H65.1532V24.371H104.457V90.3388Z" fill="white" fill-opacity="0.87"/>
<path d="M137.901 36.5378H93.7817C92.1276 36.5378 90.7896 37.8615 90.7896 39.4979V57.1566C90.7896 58.7848 92.1194 60.1085 93.7694 60.1166L99.1339 60.1451V64.7699C99.1339 65.7687 100.295 66.3291 101.088 65.7159L106.423 61.6068C107.655 60.6567 109.169 60.1451 110.729 60.1451H137.901C139.555 60.1451 140.897 58.8173 140.897 57.181V39.4979C140.897 37.8615 139.555 36.5378 137.901 36.5378ZM103.55 51.7441L101.625 53.0962L99.4171 49.5961L97.2336 52.9784L95.3086 51.6832L97.9272 48.4186L94.1183 47.3548L94.8324 45.1865L98.6044 46.6807L98.3623 42.5026H100.739L100.497 46.766L104.17 45.2921L104.884 47.4847L101.006 48.5526L103.55 51.7441ZM119.689 51.7441L117.76 53.0962L115.556 49.5961L113.372 52.9784L111.443 51.6832L114.062 48.4186L110.257 47.3548L110.971 45.1865L114.743 46.6807L114.501 42.5026H116.878L116.635 46.766L120.309 45.2921L121.023 47.4847L117.144 48.5526L119.689 51.7441ZM135.828 51.7441L133.899 53.0962L131.695 49.5961L129.511 52.9784L127.582 51.6832L130.201 48.4186L126.396 47.3548L127.11 45.1865L130.882 46.6807L130.64 42.5026H133.016L132.774 46.766L136.448 45.2921L137.162 47.4847L133.283 48.5526L135.828 51.7441Z" fill="url(#paint0_linear_3059_2726)"/>
<path fill-rule="evenodd" clip-rule="evenodd" d="M159.118 22.6628C171.188 63.69 148.858 107.313 107.994 121.248C67.1303 135.182 22.8007 114.29 7.29008 74.4359C7.61521 75.5411 7.9653 76.6444 8.34066 77.7451C22.6506 119.71 68.2702 142.129 110.235 127.819C152.2 113.509 174.618 67.8891 160.308 25.9244C159.933 24.8236 159.536 23.7363 159.118 22.6628Z" fill="#272C52"/>
<path fill-rule="evenodd" clip-rule="evenodd" d="M159.118 22.6628C171.188 63.69 148.858 107.313 107.994 121.248C67.1303 135.182 22.8007 114.29 7.29008 74.4359C7.61521 75.5411 7.9653 76.6444 8.34066 77.7451C22.6506 119.71 68.2702 142.129 110.235 127.819C152.2 113.509 174.618 67.8891 160.308 25.9244C159.933 24.8236 159.536 23.7363 159.118 22.6628Z" fill="white" fill-opacity="0.07"/>
<circle cx="7.33057" cy="7.03577" r="6.54919" fill="#272C52"/>
<circle cx="7.33057" cy="7.03577" r="6.54919" fill="white" fill-opacity="0.07"/>
<circle cx="33.6423" cy="18.3291" r="4.7439" fill="#272C52"/>
<circle cx="33.6423" cy="18.3291" r="4.7439" fill="white" fill-opacity="0.07"/>
<defs>
<linearGradient id="paint0_linear_3059_2726" x1="89.3461" y1="30.7563" x2="148.238" y2="38.7095" gradientUnits="userSpaceOnUse">
<stop stop-color="#F9CA4F"/>
<stop offset="0.545" stop-color="#FFF598"/>
<stop offset="0.995" stop-color="#C08B05"/>
</linearGradient>
</defs>
</svg>
