<svg width="210" height="70" viewBox="0 0 210 70" fill="none" xmlns="http://www.w3.org/2000/svg">
<g clip-path="url(#clip0_3007_10)">
<path d="M60.1382 38.9056C59.454 40.135 58.4035 41.1296 56.9937 41.8893C55.5839 42.6491 53.8216 43.022 51.7207 43.022H47.8438V52.2426H41.5825V26.5632H51.7207C53.7733 26.5632 55.501 26.9155 56.9177 27.6269C58.3344 28.3314 59.3918 29.3121 60.1036 30.5553C60.8085 31.7986 61.1679 33.2283 61.1679 34.8375C61.1679 36.3225 60.8223 37.6831 60.1451 38.9194L60.1382 38.9056ZM53.9115 37.2065C54.4989 36.6471 54.7892 35.8528 54.7892 34.8306C54.7892 33.8084 54.4989 33.0141 53.9115 32.4547C53.3241 31.8953 52.4326 31.6121 51.237 31.6121H47.8368V38.0492H51.237C52.4326 38.0492 53.3241 37.766 53.9115 37.2065Z" fill="white"/>
<path d="M70.6772 31.5706V36.7645H79.06V41.5923H70.6772V47.2283H80.1589V52.2426H64.4229V26.5632H80.1589V31.5775H70.6772V31.5706Z" fill="white"/>
<path d="M97.3254 52.2426L91.9833 42.5455H90.4836V52.2426H84.2224V26.5632H94.7269C96.7518 26.5632 98.4795 26.9155 99.9031 27.6269C101.334 28.3314 102.398 29.3052 103.103 30.5346C103.808 31.764 104.167 33.1385 104.167 34.651C104.167 36.357 103.683 37.8834 102.723 39.2233C101.755 40.5632 100.339 41.5164 98.4588 42.0758L104.388 52.2426H97.3254ZM90.4767 38.1182H94.3537C95.5009 38.1182 96.3579 37.8351 96.9315 37.2756C97.5051 36.7162 97.7953 35.9219 97.7953 34.8997C97.7953 33.8775 97.5051 33.1592 96.9315 32.5928C96.3579 32.0334 95.5009 31.7502 94.3537 31.7502H90.4767V38.1113V38.1182Z" fill="white"/>
<path d="M114.347 26.5632V52.2426H108.086V26.5632H114.347Z" fill="white"/>
<path d="M125.142 31.5706V36.7645H133.524V41.5923H125.142V47.2283H134.623V52.2426H118.887V26.5632H134.623V31.5775H125.142V31.5706Z" fill="white"/>
<path d="M161.672 52.2426H155.411L144.941 36.4054V52.2426H138.68V26.5632H144.941L155.411 42.4764V26.5632H161.672V52.2426Z" fill="white"/>
<path d="M166.793 32.5791C167.892 30.59 169.419 29.0429 171.389 27.9309C173.352 26.8189 175.577 26.2664 178.072 26.2664C181.119 26.2664 183.732 27.0744 185.902 28.6837C188.072 30.293 189.523 32.4893 190.256 35.2659H183.372C182.861 34.1953 182.135 33.3734 181.195 32.814C180.256 32.2545 179.184 31.9713 177.996 31.9713C176.068 31.9713 174.506 32.6413 173.31 33.9812C172.115 35.3211 171.52 37.1169 171.52 39.3616C171.52 41.6063 172.115 43.3951 173.31 44.7419C174.506 46.0818 176.068 46.7518 177.996 46.7518C179.191 46.7518 180.256 46.4686 181.195 45.9092C182.135 45.3497 182.861 44.5347 183.372 43.4573H190.256C189.523 46.2407 188.072 48.4232 185.902 50.0256C183.732 51.6211 181.119 52.4223 178.072 52.4223C175.584 52.4223 173.359 51.8697 171.389 50.7577C169.426 49.6457 167.892 48.1055 166.793 46.1302C165.694 44.1549 165.148 41.8964 165.148 39.3616C165.148 36.8268 165.694 34.5614 166.793 32.5791Z" fill="white"/>
<path d="M200.359 31.5706V36.7645H208.742V41.5923H200.359V47.2283H209.841V52.2426H194.105V26.5632H209.841V31.5775H200.359V31.5706Z" fill="white"/>
<path d="M175.342 69.5026C174.983 69.171 174.803 68.7566 174.803 68.2662C174.803 67.7759 174.983 67.3407 175.342 67.0023C175.701 66.6639 176.164 66.4912 176.731 66.4912C177.298 66.4912 177.74 66.6639 178.099 67.0023C178.459 67.3407 178.638 67.7621 178.638 68.2662C178.638 68.7704 178.459 69.171 178.099 69.5026C177.74 69.8341 177.284 69.9998 176.731 69.9998C176.178 69.9998 175.701 69.8341 175.342 69.5026Z" fill="white"/>
<path d="M192.985 56.6008L188.286 69.848H184.243L179.544 56.6008H182.978L186.261 66.6018L189.564 56.6008H192.985Z" fill="white"/>
<path d="M197.554 56.6008V69.848H194.326V56.6008H197.554Z" fill="white"/>
<path d="M209.468 62.9689C209.115 63.6043 208.576 64.1154 207.844 64.5091C207.111 64.8959 206.206 65.0961 205.128 65.0961H203.124V69.848H199.896V56.6008H205.128C206.185 56.6008 207.077 56.7804 207.809 57.1465C208.542 57.5125 209.088 58.0167 209.454 58.659C209.82 59.3014 210 60.0335 210 60.8692C210 61.6359 209.82 62.3403 209.468 62.9758V62.9689ZM206.261 62.0917C206.565 61.8016 206.717 61.3941 206.717 60.8623C206.717 60.3305 206.565 59.923 206.261 59.6329C205.957 59.3428 205.501 59.1978 204.886 59.1978H203.131V62.5199H204.886C205.501 62.5199 205.964 62.3749 206.261 62.0848V62.0917Z" fill="white"/>
<mask id="mask0_3007_10" style="mask-type:luminance" maskUnits="userSpaceOnUse" x="10" y="11" width="24" height="19">
<path d="M10.2073 11.3616H18.7975L23.9253 22.4538L33.6973 14.3315L18.8389 29.8717L10.2073 11.3616Z" fill="white"/>
</mask>
<g mask="url(#mask0_3007_10)">
<path d="M10.6081 11.3616H10.2073V29.8717H10.6081V11.3616Z" fill="#DCBB52"/>
<path d="M11.0019 11.3616H10.6011V29.8717H11.0019V11.3616Z" fill="#DBBA51"/>
<path d="M11.4028 11.3616H11.002V29.8717H11.4028V11.3616Z" fill="#DBB951"/>
<path d="M11.8037 11.3616H11.4028V29.8717H11.8037V11.3616Z" fill="#DAB850"/>
<path d="M12.1977 11.3616H11.7969V29.8717H12.1977V11.3616Z" fill="#D9B74F"/>
<path d="M12.5983 11.3616H12.1975V29.8717H12.5983V11.3616Z" fill="#D8B64F"/>
<path d="M12.9992 11.3616H12.5984V29.8717H12.9992V11.3616Z" fill="#D8B54E"/>
<path d="M13.3933 11.3616H12.9924V29.8717H13.3933V11.3616Z" fill="#D7B44D"/>
<path d="M13.7939 11.3616H13.3931V29.8717H13.7939V11.3616Z" fill="#D6B34D"/>
<path d="M14.1879 11.3616H13.7871V29.8717H14.1879V11.3616Z" fill="#D5B24C"/>
<path d="M14.5888 11.3616H14.188V29.8717H14.5888V11.3616Z" fill="#D5B14B"/>
<path d="M14.9897 11.3616H14.5889V29.8717H14.9897V11.3616Z" fill="#D4B04B"/>
<path d="M15.3835 11.3616H14.9827V29.8717H15.3835V11.3616Z" fill="#D3AF4A"/>
<path d="M15.7844 11.3616H15.3835V29.8717H15.7844V11.3616Z" fill="#D3AE49"/>
<path d="M16.1782 11.3616H15.7773V29.8717H16.1782V11.3616Z" fill="#D2AD49"/>
<path d="M16.5791 11.3616H16.1782V29.8717H16.5791V11.3616Z" fill="#D1AC48"/>
<path d="M16.9799 11.3616H16.5791V29.8717H16.9799V11.3616Z" fill="#D0AB47"/>
<path d="M17.3737 11.3616H16.9729V29.8717H17.3737V11.3616Z" fill="#D0AA47"/>
<path d="M17.7746 11.3616H17.3738V29.8717H17.7746V11.3616Z" fill="#CFA946"/>
<path d="M18.1687 11.3616H17.7678V29.8717H18.1687V11.3616Z" fill="#CEA845"/>
<path d="M18.5693 11.3616H18.1685V29.8717H18.5693V11.3616Z" fill="#CEA745"/>
<path d="M18.9702 11.3616H18.5693V29.8717H18.9702V11.3616Z" fill="#CDA644"/>
<path d="M19.3642 11.3616H18.9634V29.8717H19.3642V11.3616Z" fill="#CCA543"/>
<path d="M19.7651 11.3616H19.3643V29.8717H19.7651V11.3616Z" fill="#CBA443"/>
<path d="M20.1589 11.3616H19.7581V29.8717H20.1589V11.3616Z" fill="#CBA342"/>
<path d="M20.5598 11.3616H20.1589V29.8717H20.5598V11.3616Z" fill="#CAA241"/>
<path d="M20.9606 11.3616H20.5598V29.8717H20.9606V11.3616Z" fill="#C9A141"/>
<path d="M21.3544 11.3616H20.9536V29.8717H21.3544V11.3616Z" fill="#C8A040"/>
<path d="M21.7553 11.3616H21.3545V29.8717H21.7553V11.3616Z" fill="#C89F3F"/>
<path d="M22.1491 11.3616H21.7483V29.8717H22.1491V11.3616Z" fill="#C79D3E"/>
<path d="M22.55 11.3616H22.1492V29.8717H22.55V11.3616Z" fill="#C69C3E"/>
<path d="M22.9509 11.3616H22.55V29.8717H22.9509V11.3616Z" fill="#C69B3D"/>
<path d="M23.3449 11.3616H22.9441V29.8717H23.3449V11.3616Z" fill="#C59A3C"/>
<path d="M23.7456 11.3616H23.3447V29.8717H23.7456V11.3616Z" fill="#C4993C"/>
<path d="M24.1396 11.3616H23.7388V29.8717H24.1396V11.3616Z" fill="#C3983B"/>
<path d="M24.5405 11.3616H24.1396V29.8717H24.5405V11.3616Z" fill="#C3973A"/>
<path d="M24.9411 11.3616H24.5403V29.8717H24.9411V11.3616Z" fill="#C2963A"/>
<path d="M25.3352 11.3616H24.9343V29.8717H25.3352V11.3616Z" fill="#C19539"/>
<path d="M25.736 11.3616H25.3352V29.8717H25.736V11.3616Z" fill="#C09438"/>
<path d="M26.1367 11.3616H25.7358V29.8717H26.1367V11.3616Z" fill="#C09338"/>
<path d="M26.5307 11.3616H26.1299V29.8717H26.5307V11.3616Z" fill="#BF9237"/>
<path d="M26.9316 11.3616H26.5308V29.8717H26.9316V11.3616Z" fill="#BE9136"/>
<path d="M27.3254 11.3616H26.9246V29.8717H27.3254V11.3616Z" fill="#BE9036"/>
<path d="M27.7263 11.3616H27.3254V29.8717H27.7263V11.3616Z" fill="#BD8F35"/>
<path d="M28.1271 11.3616H27.7263V29.8717H28.1271V11.3616Z" fill="#BC8E34"/>
<path d="M28.5209 11.3616H28.1201V29.8717H28.5209V11.3616Z" fill="#BB8D34"/>
<path d="M28.9218 11.3616H28.521V29.8717H28.9218V11.3616Z" fill="#BB8C33"/>
<path d="M29.3159 11.3616H28.915V29.8717H29.3159V11.3616Z" fill="#BA8B32"/>
<path d="M29.7165 11.3616H29.3157V29.8717H29.7165V11.3616Z" fill="#B98A32"/>
<path d="M30.1174 11.3616H29.7166V29.8717H30.1174V11.3616Z" fill="#B98931"/>
<path d="M30.5114 11.3616H30.1106V29.8717H30.5114V11.3616Z" fill="#B88830"/>
<path d="M30.9123 11.3616H30.5115V29.8717H30.9123V11.3616Z" fill="#B78730"/>
<path d="M31.3061 11.3616H30.9053V29.8717H31.3061V11.3616Z" fill="#B6862F"/>
<path d="M31.707 11.3616H31.3062V29.8717H31.707V11.3616Z" fill="#B6852E"/>
<path d="M32.1079 11.3616H31.707V29.8717H32.1079V11.3616Z" fill="#B5842E"/>
<path d="M32.5017 11.3616H32.1008V29.8717H32.5017V11.3616Z" fill="#B4832D"/>
<path d="M32.9025 11.3616H32.5017V29.8717H32.9025V11.3616Z" fill="#B3822C"/>
<path d="M33.2963 11.3616H32.8955V29.8717H33.2963V11.3616Z" fill="#B3812C"/>
<path d="M33.6972 11.3616H33.2964V29.8717H33.6972V11.3616Z" fill="#B2802B"/>
</g>
<mask id="mask1_3007_10" style="mask-type:luminance" maskUnits="userSpaceOnUse" x="15" y="31" width="23" height="22">
<path d="M37.8161 52.4982H29.219L23.5659 40.1973L15.7083 48.3058L28.2514 31.5984L37.8161 52.4982Z" fill="white"/>
</mask>
<g mask="url(#mask1_3007_10)">
<path d="M16.0814 31.5984H15.7083V52.4982H16.0814V31.5984Z" fill="#DCBB52"/>
<path d="M16.4547 31.5984H16.0815V52.4982H16.4547V31.5984Z" fill="#DBBA51"/>
<path d="M16.8346 31.5984H16.4614V52.4982H16.8346V31.5984Z" fill="#DBB951"/>
<path d="M17.2079 31.5984H16.8347V52.4982H17.2079V31.5984Z" fill="#DAB850"/>
<path d="M17.5812 31.5984H17.208V52.4982H17.5812V31.5984Z" fill="#D9B74F"/>
<path d="M17.9542 31.5984H17.5811V52.4982H17.9542V31.5984Z" fill="#D8B64F"/>
<path d="M18.3344 31.5984H17.9612V52.4982H18.3344V31.5984Z" fill="#D8B54E"/>
<path d="M18.7077 31.5984H18.3345V52.4982H18.7077V31.5984Z" fill="#D7B44D"/>
<path d="M19.0807 31.5984H18.7075V52.4982H19.0807V31.5984Z" fill="#D6B34D"/>
<path d="M19.454 31.5984H19.0808V52.4982H19.454V31.5984Z" fill="#D5B24C"/>
<path d="M19.827 31.5984H19.4539V52.4982H19.827V31.5984Z" fill="#D5B14B"/>
<path d="M20.2072 31.5984H19.834V52.4982H20.2072V31.5984Z" fill="#D4B04B"/>
<path d="M20.5805 31.5984H20.2073V52.4982H20.5805V31.5984Z" fill="#D3AF4A"/>
<path d="M20.9535 31.5984H20.5803V52.4982H20.9535V31.5984Z" fill="#D3AE49"/>
<path d="M21.3268 31.5984H20.9536V52.4982H21.3268V31.5984Z" fill="#D2AD49"/>
<path d="M21.6998 31.5984H21.3267V52.4982H21.6998V31.5984Z" fill="#D1AC48"/>
<path d="M22.08 31.5984H21.7068V52.4982H22.08V31.5984Z" fill="#D0AB47"/>
<path d="M22.4533 31.5984H22.0801V52.4982H22.4533V31.5984Z" fill="#D0AA47"/>
<path d="M22.8263 31.5984H22.4531V52.4982H22.8263V31.5984Z" fill="#CFA946"/>
<path d="M23.1996 31.5984H22.8264V52.4982H23.1996V31.5984Z" fill="#CEA845"/>
<path d="M23.5729 31.5984H23.1997V52.4982H23.5729V31.5984Z" fill="#CEA745"/>
<path d="M23.9528 31.5984H23.5796V52.4982H23.9528V31.5984Z" fill="#CDA644"/>
<path d="M24.3261 31.5984H23.9529V52.4982H24.3261V31.5984Z" fill="#CCA543"/>
<path d="M24.6994 31.5984H24.3262V52.4982H24.6994V31.5984Z" fill="#CBA443"/>
<path d="M25.0724 31.5984H24.6992V52.4982H25.0724V31.5984Z" fill="#CBA342"/>
<path d="M25.4525 31.5984H25.0793V52.4982H25.4525V31.5984Z" fill="#CAA241"/>
<path d="M25.8258 31.5984H25.4526V52.4982H25.8258V31.5984Z" fill="#C9A141"/>
<path d="M26.1989 31.5984H25.8257V52.4982H26.1989V31.5984Z" fill="#C8A040"/>
<path d="M26.5722 31.5984H26.199V52.4982H26.5722V31.5984Z" fill="#C89F3F"/>
<path d="M26.9452 31.5984H26.572V52.4982H26.9452V31.5984Z" fill="#C79D3E"/>
<path d="M27.3253 31.5984H26.9521V52.4982H27.3253V31.5984Z" fill="#C69C3E"/>
<path d="M27.6986 31.5984H27.3254V52.4982H27.6986V31.5984Z" fill="#C69B3D"/>
<path d="M28.0717 31.5984H27.6985V52.4982H28.0717V31.5984Z" fill="#C59A3C"/>
<path d="M28.445 31.5984H28.0718V52.4982H28.445V31.5984Z" fill="#C4993C"/>
<path d="M28.8183 31.5984H28.4451V52.4982H28.8183V31.5984Z" fill="#C3983B"/>
<path d="M29.1981 31.5984H28.825V52.4982H29.1981V31.5984Z" fill="#C3973A"/>
<path d="M29.5714 31.5984H29.1982V52.4982H29.5714V31.5984Z" fill="#C2963A"/>
<path d="M29.9447 31.5984H29.5715V52.4982H29.9447V31.5984Z" fill="#C19539"/>
<path d="M30.3178 31.5984H29.9446V52.4982H30.3178V31.5984Z" fill="#C09438"/>
<path d="M30.6979 31.5984H30.3247V52.4982H30.6979V31.5984Z" fill="#C09338"/>
<path d="M31.0712 31.5984H30.698V52.4982H31.0712V31.5984Z" fill="#BF9237"/>
<path d="M31.4442 31.5984H31.071V52.4982H31.4442V31.5984Z" fill="#BE9136"/>
<path d="M31.8175 31.5984H31.4443V52.4982H31.8175V31.5984Z" fill="#BE9036"/>
<path d="M32.1906 31.5984H31.8174V52.4982H32.1906V31.5984Z" fill="#BD8F35"/>
<path d="M32.5707 31.5984H32.1975V52.4982H32.5707V31.5984Z" fill="#BC8E34"/>
<path d="M32.944 31.5984H32.5708V52.4982H32.944V31.5984Z" fill="#BB8D34"/>
<path d="M33.317 31.5984H32.9438V52.4982H33.317V31.5984Z" fill="#BB8C33"/>
<path d="M33.6903 31.5984H33.3171V52.4982H33.6903V31.5984Z" fill="#BA8B32"/>
<path d="M34.0634 31.5984H33.6902V52.4982H34.0634V31.5984Z" fill="#B98A32"/>
<path d="M34.4435 31.5984H34.0703V52.4982H34.4435V31.5984Z" fill="#B98931"/>
<path d="M34.8168 31.5984H34.4436V52.4982H34.8168V31.5984Z" fill="#B88830"/>
<path d="M35.1898 31.5984H34.8167V52.4982H35.1898V31.5984Z" fill="#B78730"/>
<path d="M35.5631 31.5984H35.1899V52.4982H35.5631V31.5984Z" fill="#B6862F"/>
<path d="M35.9364 31.5984H35.5632V52.4982H35.9364V31.5984Z" fill="#B6852E"/>
<path d="M36.3163 31.5984H35.9431V52.4982H36.3163V31.5984Z" fill="#B5842E"/>
<path d="M36.6896 31.5984H36.3164V52.4982H36.6896V31.5984Z" fill="#B4832D"/>
<path d="M37.0629 31.5984H36.6897V52.4982H37.0629V31.5984Z" fill="#B3822C"/>
<path d="M37.4359 31.5984H37.0627V52.4982H37.4359V31.5984Z" fill="#B3812C"/>
<path d="M37.8161 31.5984H37.4429V52.4982H37.8161V31.5984Z" fill="#B2802B"/>
</g>
<path d="M11.0504 52.3463H0L49.4333 0L11.0504 52.3463Z" fill="white"/>
<mask id="mask2_3007_10" style="mask-type:luminance" maskUnits="userSpaceOnUse" x="0" y="0" width="50" height="53">
<path d="M11.0504 52.3463H0L49.4333 0L11.0504 52.3463Z" fill="white"/>
</mask>
<g mask="url(#mask2_3007_10)">
<path d="M0.787837 0H0V52.3463H0.787837V0Z" fill="white"/>
<path d="M1.57568 0H0.787842V52.3463H1.57568V0Z" fill="white"/>
<path d="M2.35668 0H1.56885V52.3463H2.35668V0Z" fill="white"/>
<path d="M3.14453 0H2.35669V52.3463H3.14453V0Z" fill="white"/>
<path d="M3.92529 0H3.13745V52.3463H3.92529V0Z" fill="white"/>
<path d="M4.71313 0H3.92529V52.3463H4.71313V0Z" fill="white"/>
<path d="M5.49414 0H4.7063V52.3463H5.49414V0Z" fill="white"/>
<path d="M6.28198 0H5.49414V52.3463H6.28198V0Z" fill="white"/>
<path d="M7.06298 0H6.27515V52.3463H7.06298V0Z" fill="white"/>
<path d="M7.85082 0H7.06299V52.3463H7.85082V0Z" fill="white"/>
<path d="M8.63159 0H7.84375V52.3463H8.63159V0Z" fill="white"/>
<path d="M9.41943 0H8.63159V52.3463H9.41943V0Z" fill="white"/>
<path d="M10.2004 0H9.4126V52.3463H10.2004V0Z" fill="white"/>
<path d="M10.9883 0H10.2004V52.3463H10.9883V0Z" fill="white"/>
<path d="M11.7761 0H10.9883V52.3463H11.7761V0Z" fill="white"/>
<path d="M12.5571 0H11.7693V52.3463H12.5571V0Z" fill="white"/>
<path d="M13.345 0H12.5571V52.3463H13.345V0Z" fill="white"/>
<path d="M14.1257 0H13.3379V52.3463H14.1257V0Z" fill="white"/>
<path d="M14.9136 0H14.1257V52.3463H14.9136V0Z" fill="white"/>
<path d="M15.6946 0H14.9067V52.3463H15.6946V0Z" fill="white"/>
<path d="M16.4824 0H15.6946V52.3463H16.4824V0Z" fill="white"/>
<path d="M17.2634 0H16.4756V52.3463H17.2634V0Z" fill="white"/>
<path d="M18.051 0H17.2632V52.3463H18.051V0Z" fill="white"/>
<path d="M18.832 0H18.0442V52.3463H18.832V0Z" fill="white"/>
<path d="M19.6199 0H18.832V52.3463H19.6199V0Z" fill="white"/>
<path d="M20.4009 0H19.613V52.3463H20.4009V0Z" fill="white"/>
<path d="M21.1887 0H20.4009V52.3463H21.1887V0Z" fill="white"/>
<path d="M21.9766 0H21.1887V52.3463H21.9766V0Z" fill="white"/>
<path d="M22.7573 0H21.9695V52.3463H22.7573V0Z" fill="white"/>
<path d="M23.5452 0H22.7573V52.3463H23.5452V0Z" fill="white"/>
<path d="M24.3262 0H23.5383V52.3463H24.3262V0Z" fill="white"/>
<path d="M25.114 0H24.3262V52.3463H25.114V0Z" fill="white"/>
<path d="M25.895 0H25.1072V52.3463H25.895V0Z" fill="white"/>
<path d="M26.6829 0H25.895V52.3463H26.6829V0Z" fill="white"/>
<path d="M27.4636 0H26.6758V52.3463H27.4636V0Z" fill="white"/>
<path d="M28.2515 0H27.4636V52.3463H28.2515V0Z" fill="white"/>
<path d="M29.0325 0H28.2446V52.3463H29.0325V0Z" fill="white"/>
<path d="M29.8203 0H29.0325V52.3463H29.8203V0Z" fill="white"/>
<path d="M30.6013 0H29.8135V52.3463H30.6013V0Z" fill="white"/>
<path d="M31.3892 0H30.6013V52.3463H31.3892V0Z" fill="white"/>
<path d="M32.177 0H31.3892V52.3463H32.177V0Z" fill="white"/>
<path d="M32.9578 0H32.1699V52.3463H32.9578V0Z" fill="white"/>
<path d="M33.7456 0H32.9578V52.3463H33.7456V0Z" fill="white"/>
<path d="M34.5266 0H33.7388V52.3463H34.5266V0Z" fill="white"/>
<path d="M35.3144 0H34.5266V52.3463H35.3144V0Z" fill="white"/>
<path d="M36.0955 0H35.3076V52.3463H36.0955V0Z" fill="white"/>
<path d="M36.8833 0H36.0955V52.3463H36.8833V0Z" fill="white"/>
<path d="M37.6641 0H36.8762V52.3463H37.6641V0Z" fill="white"/>
<path d="M38.4519 0H37.6641V52.3463H38.4519V0Z" fill="white"/>
<path d="M39.2329 0H38.4451V52.3463H39.2329V0Z" fill="white"/>
<path d="M40.0207 0H39.2329V52.3463H40.0207V0Z" fill="white"/>
<path d="M40.8018 0H40.0139V52.3463H40.8018V0Z" fill="white"/>
<path d="M41.5896 0H40.8018V52.3463H41.5896V0Z" fill="white"/>
<path d="M42.3774 0H41.5896V52.3463H42.3774V0Z" fill="white"/>
<path d="M43.1582 0H42.3704V52.3463H43.1582V0Z" fill="white"/>
<path d="M43.946 0H43.1582V52.3463H43.946V0Z" fill="white"/>
<path d="M44.727 0H43.9392V52.3463H44.727V0Z" fill="white"/>
<path d="M45.5149 0H44.7271V52.3463H45.5149V0Z" fill="white"/>
<path d="M46.2959 0H45.5081V52.3463H46.2959V0Z" fill="white"/>
<path d="M47.0837 0H46.2959V52.3463H47.0837V0Z" fill="white"/>
<path d="M47.8645 0H47.0767V52.3463H47.8645V0Z" fill="white"/>
<path d="M48.6523 0H47.8645V52.3463H48.6523V0Z" fill="white"/>
<path d="M49.4333 0H48.6455V52.3463H49.4333V0Z" fill="white"/>
</g>
<path d="M5.32129 52.1461L6.43394 50.8269L6.86932 51.193L5.76358 52.5191L5.32129 52.1461Z" fill="black"/>
<path d="M7.55347 49.5077L8.66611 48.1885L9.07385 48.5338L7.97503 49.8599L7.55347 49.5077Z" fill="black"/>
<path d="M9.78564 46.8695L10.8983 45.5503L11.2853 45.8749L10.1796 47.201L9.78564 46.8695Z" fill="black"/>
<path d="M12.0178 44.2311L13.1305 42.9119L13.4967 43.2158L12.391 44.5488L12.0178 44.2311Z" fill="black"/>
<path d="M14.25 41.5926L15.3626 40.2734L15.7082 40.5566L14.6025 41.8896L14.25 41.5926Z" fill="black"/>
<path d="M16.4824 38.9542L17.5951 37.635L17.913 37.9044L16.8072 39.2305L16.4824 38.9542Z" fill="black"/>
<path d="M18.7146 36.3158L19.8272 34.9966L20.1244 35.2452L19.0187 36.5713L18.7146 36.3158Z" fill="black"/>
<path d="M20.9468 33.6773L22.0594 32.3582L22.3359 32.5861L21.2301 33.9122L20.9468 33.6773Z" fill="black"/>
<path d="M23.179 31.0392L24.2916 29.72L24.5404 29.9272L23.4416 31.2602L23.179 31.0392Z" fill="black"/>
<path d="M25.4111 28.4007L26.5238 27.0815L26.7518 27.268L25.6461 28.601L25.4111 28.4007Z" fill="black"/>
<path d="M27.6433 25.7623L28.756 24.4431L28.9633 24.6158L27.8575 25.9419L27.6433 25.7623Z" fill="black"/>
<path d="M29.8755 23.1239L30.9881 21.8047L31.1747 21.9566L30.069 23.2827L29.8755 23.1239Z" fill="black"/>
<path d="M32.1077 20.4855L33.2203 19.1663L33.3793 19.2975L32.2735 20.6236L32.1077 20.4855Z" fill="black"/>
<path d="M34.3398 17.8473L35.4525 16.5281L35.5907 16.6386L34.485 17.9716L34.3398 17.8473Z" fill="black"/>
<path d="M36.5723 15.2088L37.6849 13.8896L37.8024 13.9863L36.6967 15.3124L36.5723 15.2088Z" fill="black"/>
<path d="M38.8044 12.5704L39.9171 11.2512L40.0069 11.3272L38.9081 12.6533L38.8044 12.5704Z" fill="black"/>
<path d="M41.0366 9.93198L42.1493 8.61279L42.2184 8.66805L41.1126 9.99414L41.0366 9.93198Z" fill="black"/>
<path d="M43.2688 7.29356L44.3814 5.97437L44.4298 6.0089L43.3241 7.3419L43.2688 7.29356Z" fill="black"/>
<path d="M45.501 4.65537L46.6205 3.33618L46.6413 3.35L45.5355 4.683L45.501 4.65537Z" fill="black"/>
<path d="M47.7332 2.01688L48.7007 0.870361L47.7401 2.02379L47.7332 2.01688Z" fill="black"/>
</g>
<defs>
<clipPath id="clip0_3007_10">
<rect width="210" height="70" fill="white"/>
</clipPath>
</defs>
</svg>
